<mxfile host="app.diagrams.net" modified="2022-07-12T08:05:21.682Z" agent="5.0 (Windows NT 10.0; Win64; x64) AppleWebKit/537.36 (KHTML, like Gecko) Chrome/103.0.0.0 Safari/537.36" etag="b0qq0jZnhaAQYTEaP-gT" version="20.0.4" type="github">
  <diagram id="fas-1BDIQTys6Shadr6s" name="Page-1">
    <mxGraphModel dx="1312" dy="714" grid="1" gridSize="10" guides="1" tooltips="1" connect="1" arrows="1" fold="1" page="1" pageScale="1" pageWidth="827" pageHeight="1169" math="0" shadow="0">
      <root>
        <mxCell id="0" />
        <mxCell id="1" parent="0" />
        <mxCell id="dpysVa0-uHIigIyMZoji-1" value="이용자&lt;br&gt;" style="shape=umlActor;verticalLabelPosition=bottom;verticalAlign=top;html=1;outlineConnect=0;" vertex="1" parent="1">
          <mxGeometry x="60" y="290" width="70" height="140" as="geometry" />
        </mxCell>
        <mxCell id="dpysVa0-uHIigIyMZoji-2" value="게시판 서비스" style="shape=umlFrame;whiteSpace=wrap;html=1;width=110;height=30;" vertex="1" parent="1">
          <mxGeometry x="230" y="120" width="550" height="660" as="geometry" />
        </mxCell>
        <mxCell id="dpysVa0-uHIigIyMZoji-47" style="edgeStyle=orthogonalEdgeStyle;rounded=0;orthogonalLoop=1;jettySize=auto;html=1;exitX=0;exitY=0.5;exitDx=0;exitDy=0;" edge="1" parent="1" source="dpysVa0-uHIigIyMZoji-3">
          <mxGeometry relative="1" as="geometry">
            <mxPoint x="130" y="354.9655172413793" as="targetPoint" />
          </mxGeometry>
        </mxCell>
        <mxCell id="dpysVa0-uHIigIyMZoji-62" style="edgeStyle=orthogonalEdgeStyle;rounded=0;orthogonalLoop=1;jettySize=auto;html=1;exitX=1;exitY=0.5;exitDx=0;exitDy=0;entryX=0.25;entryY=1;entryDx=0;entryDy=0;" edge="1" parent="1" source="dpysVa0-uHIigIyMZoji-3" target="dpysVa0-uHIigIyMZoji-9">
          <mxGeometry relative="1" as="geometry" />
        </mxCell>
        <mxCell id="dpysVa0-uHIigIyMZoji-3" value="회원가입" style="rounded=1;whiteSpace=wrap;html=1;arcSize=40;fontColor=#000000;fillColor=#ffffc0;strokeColor=#ff0000;" vertex="1" parent="1">
          <mxGeometry x="260" y="340" width="100" height="30" as="geometry" />
        </mxCell>
        <mxCell id="dpysVa0-uHIigIyMZoji-48" style="edgeStyle=orthogonalEdgeStyle;rounded=0;orthogonalLoop=1;jettySize=auto;html=1;exitX=0;exitY=0.5;exitDx=0;exitDy=0;" edge="1" parent="1" source="dpysVa0-uHIigIyMZoji-7">
          <mxGeometry relative="1" as="geometry">
            <mxPoint x="90" y="470" as="targetPoint" />
          </mxGeometry>
        </mxCell>
        <mxCell id="dpysVa0-uHIigIyMZoji-61" style="edgeStyle=orthogonalEdgeStyle;rounded=0;orthogonalLoop=1;jettySize=auto;html=1;exitX=1;exitY=0.5;exitDx=0;exitDy=0;" edge="1" parent="1" source="dpysVa0-uHIigIyMZoji-7" target="dpysVa0-uHIigIyMZoji-9">
          <mxGeometry relative="1" as="geometry" />
        </mxCell>
        <mxCell id="dpysVa0-uHIigIyMZoji-7" value="게시판 보기" style="rounded=1;whiteSpace=wrap;html=1;arcSize=40;fontColor=#000000;fillColor=#ffffc0;strokeColor=#ff0000;" vertex="1" parent="1">
          <mxGeometry x="260" y="490" width="100" height="30" as="geometry" />
        </mxCell>
        <mxCell id="dpysVa0-uHIigIyMZoji-49" style="edgeStyle=orthogonalEdgeStyle;rounded=0;orthogonalLoop=1;jettySize=auto;html=1;exitX=0;exitY=0.5;exitDx=0;exitDy=0;" edge="1" parent="1" source="dpysVa0-uHIigIyMZoji-8">
          <mxGeometry relative="1" as="geometry">
            <mxPoint x="60" y="460" as="targetPoint" />
          </mxGeometry>
        </mxCell>
        <mxCell id="dpysVa0-uHIigIyMZoji-60" style="edgeStyle=orthogonalEdgeStyle;rounded=0;orthogonalLoop=1;jettySize=auto;html=1;exitX=1;exitY=0.5;exitDx=0;exitDy=0;entryX=0.75;entryY=1;entryDx=0;entryDy=0;" edge="1" parent="1" source="dpysVa0-uHIigIyMZoji-8" target="dpysVa0-uHIigIyMZoji-9">
          <mxGeometry relative="1" as="geometry" />
        </mxCell>
        <mxCell id="dpysVa0-uHIigIyMZoji-8" value="게시글 보기" style="rounded=1;whiteSpace=wrap;html=1;arcSize=40;fontColor=#000000;fillColor=#ffffc0;strokeColor=#ff0000;" vertex="1" parent="1">
          <mxGeometry x="260" y="630" width="100" height="30" as="geometry" />
        </mxCell>
        <mxCell id="dpysVa0-uHIigIyMZoji-46" style="edgeStyle=orthogonalEdgeStyle;rounded=0;orthogonalLoop=1;jettySize=auto;html=1;exitX=0;exitY=0.5;exitDx=0;exitDy=0;" edge="1" parent="1" source="dpysVa0-uHIigIyMZoji-9">
          <mxGeometry relative="1" as="geometry">
            <mxPoint x="100" y="270" as="targetPoint" />
          </mxGeometry>
        </mxCell>
        <mxCell id="dpysVa0-uHIigIyMZoji-50" style="edgeStyle=orthogonalEdgeStyle;rounded=0;orthogonalLoop=1;jettySize=auto;html=1;exitX=1;exitY=0.5;exitDx=0;exitDy=0;entryX=0;entryY=0.5;entryDx=0;entryDy=0;dashed=1;" edge="1" parent="1" source="dpysVa0-uHIigIyMZoji-9" target="dpysVa0-uHIigIyMZoji-10">
          <mxGeometry relative="1" as="geometry" />
        </mxCell>
        <mxCell id="dpysVa0-uHIigIyMZoji-54" value="&amp;lt;&amp;lt;include&amp;gt;&amp;gt;" style="edgeLabel;html=1;align=center;verticalAlign=middle;resizable=0;points=[];" vertex="1" connectable="0" parent="dpysVa0-uHIigIyMZoji-50">
          <mxGeometry x="0.185" y="-1" relative="1" as="geometry">
            <mxPoint x="-9" y="-1" as="offset" />
          </mxGeometry>
        </mxCell>
        <mxCell id="dpysVa0-uHIigIyMZoji-9" value="회원 로그인" style="rounded=1;whiteSpace=wrap;html=1;arcSize=40;fontColor=#000000;fillColor=#ffffc0;strokeColor=#ff0000;" vertex="1" parent="1">
          <mxGeometry x="390" y="160" width="100" height="30" as="geometry" />
        </mxCell>
        <mxCell id="dpysVa0-uHIigIyMZoji-10" value="인증" style="rounded=1;whiteSpace=wrap;html=1;arcSize=40;fontColor=#000000;fillColor=#ffffc0;strokeColor=#ff0000;" vertex="1" parent="1">
          <mxGeometry x="630" y="160" width="100" height="30" as="geometry" />
        </mxCell>
        <mxCell id="dpysVa0-uHIigIyMZoji-63" style="edgeStyle=orthogonalEdgeStyle;rounded=0;orthogonalLoop=1;jettySize=auto;html=1;exitX=0;exitY=0.5;exitDx=0;exitDy=0;entryX=1;entryY=1;entryDx=0;entryDy=0;dashed=1;" edge="1" parent="1" source="dpysVa0-uHIigIyMZoji-11" target="dpysVa0-uHIigIyMZoji-9">
          <mxGeometry relative="1" as="geometry" />
        </mxCell>
        <mxCell id="dpysVa0-uHIigIyMZoji-64" value="&amp;lt;&amp;lt;extend&amp;gt;&amp;gt;" style="edgeLabel;html=1;align=center;verticalAlign=middle;resizable=0;points=[];" vertex="1" connectable="0" parent="dpysVa0-uHIigIyMZoji-63">
          <mxGeometry x="0.108" y="-2" relative="1" as="geometry">
            <mxPoint x="39" y="2" as="offset" />
          </mxGeometry>
        </mxCell>
        <mxCell id="dpysVa0-uHIigIyMZoji-11" value="로그인 실패" style="rounded=1;whiteSpace=wrap;html=1;arcSize=40;fontColor=#000000;fillColor=#ffffc0;strokeColor=#ff0000;" vertex="1" parent="1">
          <mxGeometry x="630" y="220" width="100" height="30" as="geometry" />
        </mxCell>
        <mxCell id="dpysVa0-uHIigIyMZoji-65" style="edgeStyle=orthogonalEdgeStyle;rounded=0;orthogonalLoop=1;jettySize=auto;html=1;entryX=0.5;entryY=1;entryDx=0;entryDy=0;dashed=1;" edge="1" parent="1" source="dpysVa0-uHIigIyMZoji-12" target="dpysVa0-uHIigIyMZoji-7">
          <mxGeometry relative="1" as="geometry">
            <Array as="points">
              <mxPoint x="560" y="540" />
              <mxPoint x="310" y="540" />
            </Array>
          </mxGeometry>
        </mxCell>
        <mxCell id="dpysVa0-uHIigIyMZoji-12" value="게시판 정렬" style="rounded=1;whiteSpace=wrap;html=1;arcSize=40;fontColor=#000000;fillColor=#ffffc0;strokeColor=#ff0000;" vertex="1" parent="1">
          <mxGeometry x="510" y="490" width="100" height="30" as="geometry" />
        </mxCell>
        <mxCell id="dpysVa0-uHIigIyMZoji-67" style="edgeStyle=orthogonalEdgeStyle;rounded=0;orthogonalLoop=1;jettySize=auto;html=1;exitX=0.5;exitY=1;exitDx=0;exitDy=0;entryX=0.25;entryY=1;entryDx=0;entryDy=0;dashed=1;" edge="1" parent="1" source="dpysVa0-uHIigIyMZoji-13" target="dpysVa0-uHIigIyMZoji-7">
          <mxGeometry relative="1" as="geometry" />
        </mxCell>
        <mxCell id="dpysVa0-uHIigIyMZoji-13" value="게시판 검색" style="rounded=1;whiteSpace=wrap;html=1;arcSize=40;fontColor=#000000;fillColor=#ffffc0;strokeColor=#ff0000;" vertex="1" parent="1">
          <mxGeometry x="510" y="545" width="100" height="30" as="geometry" />
        </mxCell>
        <mxCell id="dpysVa0-uHIigIyMZoji-68" style="edgeStyle=orthogonalEdgeStyle;rounded=0;orthogonalLoop=1;jettySize=auto;html=1;exitX=0.5;exitY=1;exitDx=0;exitDy=0;entryX=0.5;entryY=1;entryDx=0;entryDy=0;dashed=1;" edge="1" parent="1" source="dpysVa0-uHIigIyMZoji-14" target="dpysVa0-uHIigIyMZoji-8">
          <mxGeometry relative="1" as="geometry" />
        </mxCell>
        <mxCell id="dpysVa0-uHIigIyMZoji-14" value="게시글 CRUD" style="rounded=1;whiteSpace=wrap;html=1;arcSize=40;fontColor=#000000;fillColor=#ffffc0;strokeColor=#ff0000;" vertex="1" parent="1">
          <mxGeometry x="510" y="630" width="100" height="30" as="geometry" />
        </mxCell>
        <mxCell id="dpysVa0-uHIigIyMZoji-69" style="edgeStyle=orthogonalEdgeStyle;rounded=0;orthogonalLoop=1;jettySize=auto;html=1;exitX=0.5;exitY=1;exitDx=0;exitDy=0;entryX=0.25;entryY=1;entryDx=0;entryDy=0;dashed=1;" edge="1" parent="1" source="dpysVa0-uHIigIyMZoji-15" target="dpysVa0-uHIigIyMZoji-8">
          <mxGeometry relative="1" as="geometry" />
        </mxCell>
        <mxCell id="dpysVa0-uHIigIyMZoji-15" value="댓글 CRUD" style="rounded=1;whiteSpace=wrap;html=1;arcSize=40;fontColor=#000000;fillColor=#ffffc0;strokeColor=#ff0000;" vertex="1" parent="1">
          <mxGeometry x="510" y="685" width="100" height="30" as="geometry" />
        </mxCell>
      </root>
    </mxGraphModel>
  </diagram>
</mxfile>
